PathFileType	4	(X/Y/Z)	D:\Share\Shared_Data\Ergonomics\Sit To Stand Pertubation\S3\Perturbed.trc
DataRate	CameraRate	NumFrames	NumMarkers	Units	OrigDataRate	OrigDataStartFrame	OrigNumFrames	
100	100	16	18	m	100	9497	231
Frame#	Time	R_ASIS			R_Pelvis			V_Sacral			L_Pelvis			L_ASIS			Clavical			R_Acromium			L_Acromium			Sternum			Torso			R_Thigh_Med			R_Thigh_Lat			R_Thigh			R_Shank_Med			R_Shank_Lat			R_Shank			R_Heel			R_Toe			
		X1	Y1	Z1	X2	Y2	Z2	X3	Y3	Z3	X4	Y4	Z4	X5	Y5	Z5	X6	Y6	Z6	X7	Y7	Z7	X8	Y8	Z8	X9	Y9	Z9	X10	Y10	Z10	X11	Y11	Z11	X12	Y12	Z12	X13	Y13	Z13	X14	Y14	Z14	X15	Y15	Z15	X16	Y16	Z16	X17	Y17	Z17	X18	Y18	Z18	

9497	94.96	0.044713364	0.63641638	0.1401485	-0.061403797	0.63281311	0.19679749	-0.17140208	0.63676117	0.010057196	-0.055365517	0.64795819	-0.19161411	0.050932831	0.63859381	-0.13729779	0.11575583	1.0189493	-0.013036411	0.081573311	1.0874469	0.15972101	0.081582588	1.0789882	-0.17108124	0.12204163	0.93967426	-0.004875176	0.11871783	1.0049068	-0.074301155	0.38505069	0.46363483	0.059497425	0.37275983	0.44804742	0.17777048	0.20371344	0.57654089	0.10170246	0.30724979	0.10710798	0.09155452	0.29316028	0.095011963	0.17360643	0.31676816	0.27359198	0.19216847	0.23225301	0.050744362	0.13010196	0.44951028	0.056354866	0.1138447
9498	94.97	0.045871098	0.63575385	0.1401127	-0.060498749	0.63307666	0.19679166	-0.17057602	0.6379848	0.010110103	-0.05458923	0.64839038	-0.19170879	0.051748226	0.63811212	-0.13736368	0.12230466	1.0168423	-0.012792173	0.089299202	1.0857468	0.1597177	0.088775757	1.0771017	-0.17006906	0.12732837	0.93725299	-0.0048344116	0.12504099	1.0026602	-0.074155365	0.38504877	0.4630665	0.059565773	0.37279529	0.44805136	0.1774537	0.20377831	0.57649072	0.10127534	0.30723889	0.10709007	0.091529053	0.29317377	0.094955132	0.17357201	0.31681598	0.27363718	0.19202065	0.23223009	0.050869911	0.13022559	0.44950543	0.05635593	0.11383456
9499	94.98	0.047134647	0.63503912	0.14008008	-0.059519096	0.63335297	0.19679276	-0.16965378	0.63929474	0.010167421	-0.05374609	0.6488551	-0.19190907	0.0526119	0.6375993	-0.13742448	0.12912148	1.0146377	-0.012433334	0.097396332	1.0838867	0.15973183	0.096330902	1.075359	-0.16905273	0.13287779	0.93466559	-0.0047463078	0.13164369	1.0002555	-0.073964104	0.38504083	0.46253714	0.059603188	0.37282956	0.44805087	0.17715744	0.20385104	0.57643573	0.1008548	0.3072262	0.1070722	0.091504616	0.29317822	0.094899033	0.17354674	0.3168515	0.27367502	0.19187965	0.232203	0.051027695	0.13038086	0.44950055	0.05635799	0.11382473
9500	94.99	0.048482197	0.6342608	0.14005003	-0.058461246	0.63364282	0.1967968	-0.16862108	0.64069965	0.010226705	-0.052825291	0.6493526	-0.19226266	0.053528038	0.63704968	-0.13748592	0.1362061	1.0123403	-0.011948631	0.10587627	1.0818628	0.159769	0.10425231	1.0737214	-0.1680186	0.13869177	0.93190759	-0.0045943289	0.13851968	0.99768909	-0.073725174	0.38501968	0.46208228	0.05957769	0.37285977	0.44804553	0.17688736	0.20391814	0.57636743	0.10043914	0.30721042	0.10705455	0.09148275	0.29316986	0.09484362	0.17353232	0.31686987	0.27370389	0.19174756	0.23217293	0.051197926	0.13055293	0.44949405	0.056361904	0.1138157
9501	95	0.049899696	0.63340381	0.14002728	-0.057319698	0.63394672	0.1968004	-0.16746036	0.64220728	0.010284674	-0.051814007	0.64988287	-0.19280902	0.054508053	0.63645648	-0.13755511	0.14356184	1.0099416	-0.011348281	0.11474641	1.0796738	0.1598325	0.11253107	1.0720946	-0.16696288	0.14477094	0.9289801	-0.0043607578	0.1456593	0.99495953	-0.073439865	0.38498395	0.46171057	0.059486572	0.3728829	0.44803613	0.17664812	0.2039673	0.57627667	0.1000263	0.30719	0.10703707	0.091465157	0.29314377	0.094789574	0.17352943	0.31686758	0.27372238	0.19162627	0.23214098	0.051353733	0.13072058	0.44948404	0.056368534	0.11380807
9502	95.01	0.051388645	0.63245221	0.14001944	-0.056085728	0.63426483	0.1968022	-0.16615155	0.64382422	0.010338651	-0.050697041	0.65044519	-0.19355995	0.055580349	0.63581268	-0.13763972	0.15119633	1.0074146	-0.010671809	0.1240088	1.0773169	0.15992027	0.12115162	1.0703728	-0.16591904	0.15111209	0.92589154	-0.0040318427	0.15305106	0.99206689	-0.073113846	0.38493527	0.4614144	0.059345585	0.37289563	0.44802435	0.17644295	0.20398926	0.57615601	0.09961274	0.3071633	0.10701958	0.091453438	0.29309439	0.09474028	0.17354004	0.31684293	0.27372949	0.19151753	0.23210655	0.051474068	0.13086757	0.44946881	0.056378746	0.11380241
9503	95.02	0.052964306	0.63139105	0.14003531	-0.054747818	0.63459711	0.19680402	-0.16467242	0.64555481	0.010387466	-0.049456043	0.6510387	-0.19447377	0.056785294	0.63510767	-0.13774777	0.15911769	1.0047224	-0.0099752188	0.13366013	1.0747859	0.1600251	0.13009738	1.0684785	-0.1649254	0.1577058	0.92265875	-0.003605917	0.1606841	0.98901349	-0.072755043	0.38487537	0.4611785	0.059177841	0.37289462	0.44801138	0.1762742	0.20397922	0.57600171	0.099192543	0.30712906	0.10700179	0.091448875	0.29301633	0.094701653	0.17356822	0.31679584	0.27372507	0.19142329	0.23206715	0.051550667	0.13098836	0.44944724	0.056393459	0.11379891
9504	95.03	0.054649151	0.63020673	0.14008411	-0.053292477	0.63494391	0.19681116	-0.16299898	0.64740063	0.010431978	-0.048068481	0.65166089	-0.19544379	0.058156597	0.63432434	-0.13788695	0.16732565	1.0018403	-0.0093033953	0.14369286	1.0720746	0.16013716	0.13935429	1.0663756	-0.16399496	0.16453355	0.91929926	-0.0031058867	0.16855069	0.9858031	-0.072369926	0.38480612	0.46098547	0.059007782	0.37287781	0.44799631	0.17614397	0.2039411	0.57581616	0.098758804	0.30708682	0.10698363	0.09145208	0.29290527	0.094681519	0.17361906	0.3167276	0.27370926	0.19134601	0.23202003	0.051585598	0.1310853	0.44941898	0.056413464	0.11379767
9505	95.04	0.056467903	0.62888855	0.14017509	-0.05170348	0.63530554	0.19683232	-0.16110661	0.64936072	0.010475194	-0.046506489	0.65230621	-0.19633235	0.059717167	0.63344189	-0.13806375	0.17580655	0.99876355	-0.0086781149	0.15409656	1.0691823	0.16024574	0.14891205	1.0640659	-0.16311868	0.1715676	0.91581207	-0.0025881455	0.1766469	0.98244275	-0.071961464	0.38473077	0.46081757	0.058859161	0.37284567	0.44797598	0.17605621	0.20388794	0.57560846	0.098305687	0.30703708	0.10696516	0.091463005	0.29275845	0.094688812	0.17369821	0.31664053	0.27368243	0.19128877	0.23196405	0.051586521	0.13116402	0.44938443	0.056438915	0.11379896
9506	95.05	0.058445465	0.62743103	0.1403175	-0.049960377	0.63568335	0.19687886	-0.15897061	0.65143262	0.01052197	-0.044737305	0.65296851	-0.19703555	0.061488819	0.63244318	-0.13828299	0.18453561	0.99549927	-0.0081064377	0.164858	1.0661155	0.16033875	0.15876512	1.061573	-0.16227879	0.17878165	0.9121734	-0.0021252105	0.18496809	0.97894281	-0.071531548	0.38465408	0.46065704	0.058755001	0.37280331	0.44794528	0.17601878	0.20383511	0.57539038	0.097829369	0.30698132	0.10694646	0.091480797	0.29257587	0.094730042	0.17380922	0.31653821	0.27364417	0.1912558	0.23190021	0.051563938	0.13123163	0.44934488	0.056469055	0.11380345
9507	95.06	0.060606155	0.6258363	0.14052045	-0.048037941	0.63608099	0.19696336	-0.15656557	0.65361377	0.010578856	-0.042725746	0.6536463	-0.19751721	0.063496223	0.63131842	-0.13854829	0.19348152	0.99206061	-0.0075893559	0.1759599	1.0628878	0.16040192	0.16891357	1.0589313	-0.16145781	0.18617189	0.90836823	-0.0017650292	0.19350026	0.97531757	-0.071085014	0.38458542	0.46048886	0.058717155	0.37276184	0.44789835	0.17604417	0.20379533	0.57517297	0.097328911	0.30692227	0.10692732	0.091503822	0.29236249	0.094802368	0.17394806	0.3164274	0.2735929	0.19125232	0.23183159	0.051531414	0.13129739	0.44930231	0.056502289	0.11381203
9508	95.07	0.06297274	0.62411591	0.14079251	-0.045906887	0.63650446	0.19709785	-0.15386594	0.65590283	0.010653696	-0.040437351	0.65434454	-0.19779527	0.065764183	0.63006854	-0.13886351	0.20260999	0.98846613	-0.0071248503	0.18738058	1.0595187	0.16041963	0.17936301	1.0561772	-0.1606424	0.19376405	0.90441699	-0.0015115947	0.20221548	0.97158569	-0.070630798	0.38454407	0.46030487	0.058764877	0.37273981	0.44782968	0.17614699	0.20378282	0.57496692	0.096808144	0.30686337	0.10690704	0.091529877	0.29213168	0.094887047	0.17409773	0.31631888	0.27352548	0.19128404	0.2317628	0.05150827	0.13137482	0.44925949	0.056536285	0.11382561
9509	95.08	0.065565659	0.62229156	0.14113943	-0.043535412	0.63696405	0.1972924	-0.15084734	0.65830103	0.010754439	-0.037841305	0.6550766	-0.19791376	0.068313904	0.62870648	-0.13923354	0.21188638	0.98473944	-0.0067104182	0.19909401	1.0560336	0.16037622	0.19012373	1.0533475	-0.15982359	0.20159511	0.90036938	-0.0013432077	0.21107407	0.96777051	-0.070180138	0.38456091	0.46010422	0.058913109	0.37276315	0.44773383	0.17634035	0.2038262	0.57478949	0.096277771	0.30680875	0.10688416	0.091556297	0.29190631	0.094948395	0.17422667	0.31622812	0.27343701	0.19135609	0.23169931	0.051522705	0.13148395	0.4492196	0.056567963	0.11384504
9510	95.09	0.068401787	0.62039679	0.14156134	-0.040890442	0.63747369	0.1975546	-0.14748836	0.66081287	0.010888342	-0.034912811	0.65586407	-0.19792274	0.071159721	0.62725806	-0.13966528	0.2212795	0.98090814	-0.0063444786	0.21106953	1.0524624	0.16025723	0.20120921	1.0504773	-0.1589949	0.20969815	0.89629138	-0.0012299912	0.22003101	0.96390161	-0.069743828	0.38467276	0.45988889	0.059169964	0.37286456	0.44760474	0.17663231	0.20397672	0.57466913	0.095755676	0.30676309	0.10685644	0.091579849	0.29171268	0.094946045	0.17429813	0.31617618	0.27332114	0.19147153	0.23164647	0.05161274	0.13165211	0.4491868	0.05659325	0.11387115
9511	95.1	0.071492172	0.61847455	0.14205058	-0.037937809	0.63805267	0.1978893	-0.1437731	0.66344525	0.011062115	-0.031634737	0.65673694	-0.19786728	0.074306473	0.62576166	-0.14016692	0.23076822	0.97700836	-0.0060241485	0.22327074	1.0488395	0.16005026	0.21263437	1.0475997	-0.15814938	0.21810136	0.8922605	-0.0011366431	0.22904622	0.96001685	-0.06932901	0.38491537	0.45965918	0.059533478	0.37308231	0.44743475	0.17702269	0.20430299	0.57464301	0.095266396	0.30673215	0.10682081	0.09159655	0.29157117	0.094855072	0.17428664	0.31618896	0.2731701	0.19163031	0.23160883	0.051822208	0.13191164	0.44916623	0.056606838	0.11390486
9512	95.11	0.074842529	0.61657507	0.14259134	-0.034642418	0.63872516	0.198299	-0.13969461	0.66620618	0.01128229	-0.027998541	0.65773218	-0.19778238	0.077748009	0.62426678	-0.14074429	0.24034531	0.97308844	-0.0057420106	0.23565378	1.045202	0.15974588	0.22441235	1.0447469	-0.15727643	0.22681535	0.88835394	-0.0010326232	0.23810216	0.95616193	-0.068934486	0.38532272	0.45941742	0.059988388	0.37345898	0.44721344	0.17750018	0.20488129	0.57475079	0.094841385	0.30672354	0.10677348	0.091601593	0.29149182	0.094677704	0.17418915	0.31629611	0.27297546	0.19182764	0.23159007	0.052191307	0.13229242	0.4491647	0.056602028	0.11394736
